<svg xmlns="http://www.w3.org/2000/svg" viewBox="0 0 128 128">
  <defs>
    <linearGradient id="frame" x1="8" y1="20" x2="120" y2="108" gradientUnits="userSpaceOnUse">
      <stop offset="0" stop-color="#4a5568" />
      <stop offset="1" stop-color="#1f2937" />
    </linearGradient>
    <linearGradient id="screen" x1="16" y1="28" x2="112" y2="100" gradientUnits="userSpaceOnUse">
      <stop offset="0" stop-color="#ffffff" />
      <stop offset="1" stop-color="#a0b5ce" />
    </linearGradient>
  </defs>

  <rect x="8" y="20" width="112" height="88" rx="20" fill="url(#frame)" />
  <rect x="16" y="28" width="96" height="72" rx="12" fill="url(#screen)" />

  <g transform="translate(28 38) scale(5)" fill="#e8b484" >
    <path
      d="m7.5 0a3.5 3.5 0 0 0-3.5 3.5 3.5 3.5 0 0 0 1.75 3.0234v-2.7734c0-0.9522 0.7978-1.75 1.75-1.75 0.96865 0 1.75 0.80757 1.75 1.7598v2.7637a3.5 3.5 0 0 0 1.75-3.0234 3.5 3.5 0 0 0-3.5-3.5z"
      fill="#f3f5f6" />
    <path
      d="m7.4995 3c-0.4155 0-0.75 0.3345-0.75 0.75v8.6895l-1.7197-1.7197c-0.14319-0.14319-0.3351-0.2273-0.5376-0.22705-0.23943 2.98e-4 -0.43568 0.13978-0.60498 0.30908-0.14942 0.14941-0.44824 0.44824-0.44824 0.44824l3.7529 3.75h5.5576c0.44308 0 1.1226-0.11644 1.4531-0.29883 0.28227-0.15575 0.50503-0.4195 0.62842-0.74854 0.12335-0.32895 0.16846-0.71968 0.16846-1.2129v-3.1772c0-0.72487-0.58762-1.3134-1.3125-1.3125-0.28348 3.585e-4 -0.55894 0.094283-0.78516 0.26514-0.13819-0.59407-0.66741-1.0152-1.2773-1.0151-0.46034 8.25e-5 -0.88669 0.24247-1.1235 0.63721-0.23739-0.39563-0.66508-0.63738-1.1265-0.63721-0.47817 1.814e-4 -0.89556 0.25655-1.125 0.63867v-4.3784c0-0.4155-0.3345-0.76025-0.75-0.76025z" />
  </g>
</svg>